<svg xmlns="http://www.w3.org/2000/svg" width="448" height="384" viewBox="0 0 448 384">
  <path fill="#FFF" d="M0,32 C0,14.33 14.33,0 32,0 L416,0 C433.7,0 448,14.33 448,32 C448,49.7 433.7,64 416,64 L32,64 C14.33,64 0,49.7 0,32 Z M0,192 C0,174.3 14.33,160 32,160 L416,160 C433.7,160 448,174.3 448,192 C448,209.7 433.7,224 416,224 L32,224 C14.33,224 0,209.7 0,192 Z M416,384 L32,384 C14.33,384 0,369.7 0,352 C0,334.3 14.33,320 32,320 L416,320 C433.7,320 448,334.3 448,352 C448,369.7 433.7,384 416,384 Z"/>
</svg>
