<svg xmlns="http://www.w3.org/2000/svg" width="100" height="75" viewBox="0 0 100 75">
  <path fill="#FFF" d="M90.625,0 C95.8007812,0 100,4.19726562 100,9.375 C100,12.3242187 98.6132812,15.0976562 96.25,16.875 L53.75,48.75 C51.5234375,50.4101562 48.4765625,50.4101562 46.25,48.75 L3.75,16.875 C1.38925781,15.0976562 0,12.3242187 0,9.375 C0,4.19726562 4.19726562,0 9.375,0 L90.625,0 Z M42.5,53.75 C46.953125,57.0898438 53.046875,57.0898438 57.5,53.75 L100,21.875 L100,62.5 C100,69.3945312 94.3945312,75 87.5,75 L12.5,75 C5.59570312,75 0,69.3945312 0,62.5 L0,21.875 L42.5,53.75 Z"/>
</svg>
