<svg xmlns="http://www.w3.org/2000/svg" width="100" height="100" viewBox="0 0 100 100">
  <path fill="#FFF" d="M99.8531975,75.5832657 L95.3117522,95.2697704 C94.6738012,98.0528328 92.227476,100 89.3619705,100 C40.0819173,99.9960939 0,59.9199952 0,10.6451427 C0,7.78200624 1.94725455,5.33291132 4.73091636,4.69817778 L24.4202792,0.157391737 C27.287738,-0.507027795 30.2177028,0.981178212 31.4092217,3.69627531 L40.496019,24.8866102 C41.5582289,27.3825777 40.8417548,30.2906338 38.7419468,32.0053909 L28.2253268,40.4483234 C34.8626735,53.9671711 45.8559011,64.9588029 59.3806182,71.5990922 L67.9908079,61.0918109 C69.6878434,58.9864486 72.6181988,58.2579698 75.1145287,59.3389699 L96.3079402,68.422495 C98.8570095,69.7632475 100.517323,72.7318474 99.8531975,75.5832657 Z"/>
</svg>
